<?xml version="1.0" encoding="UTF-8" standalone="no"?>
<!-- Created with Inkscape (http://www.inkscape.org/) -->
<svg
   xmlns:dc="http://purl.org/dc/elements/1.1/"
   xmlns:cc="http://creativecommons.org/ns#"
   xmlns:rdf="http://www.w3.org/1999/02/22-rdf-syntax-ns#"
   xmlns:svg="http://www.w3.org/2000/svg"
   xmlns="http://www.w3.org/2000/svg"
   xmlns:xlink="http://www.w3.org/1999/xlink"
   xmlns:sodipodi="http://sodipodi.sourceforge.net/DTD/sodipodi-0.dtd"
   xmlns:inkscape="http://www.inkscape.org/namespaces/inkscape"
   width="32"
   height="32"
   id="svg2"
   sodipodi:version="0.32"
   inkscape:version="0.46"
   version="1.0"
   sodipodi:docname="circular-application-menu.svg"
   inkscape:output_extension="org.inkscape.output.svg.inkscape">
  <defs
     id="defs4">
    <linearGradient
       id="linearGradient3480">
      <stop
         style="stop-color:#000000;stop-opacity:1;"
         offset="0"
         id="stop3482" />
      <stop
         style="stop-color:#ffffff;stop-opacity:0;"
         offset="1"
         id="stop3484" />
    </linearGradient>
    <inkscape:perspective
       sodipodi:type="inkscape:persp3d"
       inkscape:vp_x="0 : 526.18109 : 1"
       inkscape:vp_y="0 : 1000 : 0"
       inkscape:vp_z="744.09448 : 526.18109 : 1"
       inkscape:persp3d-origin="372.04724 : 350.78739 : 1"
       id="perspective10" />
    <inkscape:perspective
       id="perspective2390"
       inkscape:persp3d-origin="372.04724 : 350.78739 : 1"
       inkscape:vp_z="744.09448 : 526.18109 : 1"
       inkscape:vp_y="0 : 1000 : 0"
       inkscape:vp_x="0 : 526.18109 : 1"
       sodipodi:type="inkscape:persp3d" />
    <linearGradient
       inkscape:collect="always"
       xlink:href="#linearGradient3480"
       id="linearGradient3637"
       gradientUnits="userSpaceOnUse"
       x1="539.68951"
       y1="254.92175"
       x2="499.12466"
       y2="235.77309" />
    <linearGradient
       inkscape:collect="always"
       xlink:href="#linearGradient3480"
       id="linearGradient3639"
       gradientUnits="userSpaceOnUse"
       x1="539.68951"
       y1="254.92175"
       x2="499.12466"
       y2="235.77309" />
    <linearGradient
       inkscape:collect="always"
       xlink:href="#linearGradient3480"
       id="linearGradient3641"
       gradientUnits="userSpaceOnUse"
       x1="539.68951"
       y1="254.92175"
       x2="499.12466"
       y2="235.77309" />
    <linearGradient
       inkscape:collect="always"
       xlink:href="#linearGradient3480"
       id="linearGradient3643"
       gradientUnits="userSpaceOnUse"
       x1="539.68951"
       y1="254.92175"
       x2="499.12466"
       y2="235.77309" />
    <linearGradient
       inkscape:collect="always"
       xlink:href="#linearGradient3480"
       id="linearGradient3645"
       gradientUnits="userSpaceOnUse"
       x1="539.68951"
       y1="254.92175"
       x2="499.12466"
       y2="235.77309" />
    <linearGradient
       inkscape:collect="always"
       xlink:href="#linearGradient3480"
       id="linearGradient3647"
       gradientUnits="userSpaceOnUse"
       x1="539.68951"
       y1="254.92175"
       x2="499.12466"
       y2="235.77309" />
    <linearGradient
       y2="482.33612"
       x2="180.55124"
       y1="502.23358"
       x1="180.55124"
       gradientUnits="userSpaceOnUse"
       id="linearGradient2226"
       xlink:href="#linearGradient3685"
       inkscape:collect="always" />
    <linearGradient
       y2="482.33612"
       x2="180.55124"
       y1="502.23358"
       x1="180.55124"
       gradientUnits="userSpaceOnUse"
       id="linearGradient4629"
       xlink:href="#linearGradient3685"
       inkscape:collect="always" />
    <radialGradient
       r="12.159574"
       fy="449.36105"
       fx="196.39554"
       cy="449.36105"
       cx="196.39554"
       gradientTransform="matrix(1.8904738,7.0428553e-7,-7.1385477e-7,1.7459227,-174.88477,-333.50653)"
       gradientUnits="userSpaceOnUse"
       id="radialGradient4620"
       xlink:href="#linearGradient3662"
       inkscape:collect="always" />
    <linearGradient
       y2="495.41687"
       x2="208.00241"
       y1="445.27399"
       x1="208.00241"
       gradientUnits="userSpaceOnUse"
       id="linearGradient4617"
       xlink:href="#linearGradient3697"
       inkscape:collect="always" />
    <linearGradient
       y2="482.33612"
       x2="180.55124"
       y1="502.23358"
       x1="180.55124"
       gradientUnits="userSpaceOnUse"
       id="linearGradient4615"
       xlink:href="#linearGradient3685"
       inkscape:collect="always" />
    <radialGradient
       r="12.159574"
       fy="449.36105"
       fx="196.39554"
       cy="449.36105"
       cx="196.39554"
       gradientTransform="matrix(1.8904738,7.0428553e-7,-7.1385477e-7,1.7459227,-174.88477,-333.50653)"
       gradientUnits="userSpaceOnUse"
       id="radialGradient4611"
       xlink:href="#linearGradient3662"
       inkscape:collect="always" />
    <radialGradient
       r="12.159574"
       fy="449.36105"
       fx="196.39554"
       cy="449.36105"
       cx="196.39554"
       gradientTransform="matrix(1.8904738,7.0428553e-7,-7.1385477e-7,1.7459227,-174.88477,-333.50653)"
       gradientUnits="userSpaceOnUse"
       id="radialGradient3824"
       xlink:href="#linearGradient3662"
       inkscape:collect="always" />
    <linearGradient
       y2="495.41687"
       x2="208.00241"
       y1="445.27399"
       x1="208.00241"
       gradientUnits="userSpaceOnUse"
       id="linearGradient3819"
       xlink:href="#linearGradient3697"
       inkscape:collect="always" />
    <linearGradient
       y2="482.33612"
       x2="180.55124"
       y1="502.23358"
       x1="180.55124"
       gradientUnits="userSpaceOnUse"
       id="linearGradient3817"
       xlink:href="#linearGradient3685"
       inkscape:collect="always" />
    <linearGradient
       inkscape:collect="always"
       id="linearGradient3696">
      <stop
         style="stop-color:#bdccd6;stop-opacity:1"
         offset="0"
         id="stop3698" />
      <stop
         style="stop-color:#aeb693;stop-opacity:0;"
         offset="1"
         id="stop3700" />
    </linearGradient>
    <linearGradient
       inkscape:collect="always"
       xlink:href="#linearGradient3696"
       id="linearGradient3016"
       gradientUnits="userSpaceOnUse"
       gradientTransform="translate(8.020297,12.03047)"
       x1="65.96106"
       y1="-73.912018"
       x2="65.96106"
       y2="-41.830791" />
    <linearGradient
       inkscape:collect="always"
       xlink:href="#linearGradient3645"
       id="linearGradient3018"
       gradientUnits="userSpaceOnUse"
       gradientTransform="matrix(0.964715,0,0,0.963726,66.02245,-7.730381)"
       x1="53.07806"
       y1="-74.032806"
       x2="53.078056"
       y2="-32.782139" />
    <defs
       id="defs2412">
      <pattern
         id="wbg"
         patternUnits="userSpaceOnUse"
         x="0"
         y="0"
         width="100"
         height="4"
         viewBox="0 0 100 4">
        <rect
           x="0"
           y="0"
           width="100"
           height="1"
           fill="rgb(230,230,230)"
           id="rect2415" />
        <rect
           x="0"
           y="1"
           width="100"
           height="3"
           fill="white"
           id="rect2417" />
      </pattern>
    </defs>
    <defs
       id="defs2360">
<!--gradient for the backround-->      <linearGradient
         id="bg"
         x1="0.5"
         y1="0"
         x2="0.5"
         y2="1">
        <stop
           offset="0%"
           stop-color="rgb(0,0,20)"
           stop-opacity=".8"
           id="stop2363" />
        <stop
           offset="100%"
           stop-color="rgb(200,200,256)"
           stop-opacity=".8"
           id="stop2365" />
      </linearGradient>
<!--gradient for the top highlight-->      <linearGradient
         id="hlt"
         x1="35.355339"
         y1="0"
         x2="35.355339"
         y2="70.710678"
         gradientTransform="scale(1.4142136,0.7071068)"
         gradientUnits="userSpaceOnUse">
        <stop
           offset="0%"
           stop-color="white"
           stop-opacity="1"
           id="stop2368" />
        <stop
           offset="90%"
           stop-color="white"
           stop-opacity="0"
           id="stop2370" />
      </linearGradient>
<!--gradient for the top highlight bullet-->      <linearGradient
         id="hltbl"
         x1="25"
         y1="-2.0634963e-30"
         x2="25"
         y2="50"
         gradientUnits="userSpaceOnUse">
        <stop
           offset="0%"
           stop-color="white"
           stop-opacity="1"
           id="stop2373" />
        <stop
           offset="100%"
           stop-color="white"
           stop-opacity="0"
           id="stop2375" />
      </linearGradient>
<!--gradient for the bottom highlight-->      <linearGradient
         id="hlb"
         x1="35.355339"
         y1="0"
         x2="35.355339"
         y2="70.710678"
         gradientTransform="scale(1.4142136,0.7071068)"
         gradientUnits="userSpaceOnUse">
        <stop
           offset="20%"
           stop-color="white"
           stop-opacity="0"
           id="stop2378" />
        <stop
           offset="100%"
           stop-color="white"
           stop-opacity="1"
           id="stop2380" />
      </linearGradient>
<!--gradient for the bottom highlight bullet-->      <linearGradient
         id="hlbbl"
         x1="25"
         y1="-2.0634963e-30"
         x2="25"
         y2="50"
         gradientUnits="userSpaceOnUse">
        <stop
           offset="0%"
           stop-color="white"
           stop-opacity="0"
           id="stop2383" />
        <stop
           offset="100%"
           stop-color="white"
           stop-opacity="1"
           id="stop2385" />
      </linearGradient>
<!--gaussian blur for the bottom highlight-->      <filter
         id="gblur2">
        <feGaussianBlur
           stdDeviation="2"
           id="feGaussianBlur2388" />
      </filter>
      <filter
         id="gblur1">
        <feGaussianBlur
           stdDeviation="1"
           id="feGaussianBlur2391" />
      </filter>
<!--shape of the button-->      <rect
         style="stroke:none"
         id="bt"
         x="0"
         y="0"
         rx="25"
         ry="25"
         width="100"
         height="50" />
<!--shape of bullet-->      <circle
         style="stroke:none"
         sodipodi:ry="25"
         sodipodi:rx="25"
         sodipodi:cy="25"
         sodipodi:cx="25"
         id="bl"
         cx="25"
         cy="25"
         r="25" />
    </defs>
    <pattern
       patternTransform="translate(5,5)"
       id="pattern2646"
       xlink:href="#wbg"
       inkscape:collect="always" />
    <linearGradient
       id="linearGradient3662">
      <stop
         id="stop3664"
         offset="0"
         style="stop-color:#c00000;stop-opacity:1;" />
      <stop
         id="stop3666"
         offset="1"
         style="stop-color:#000000;stop-opacity:1;" />
    </linearGradient>
    <linearGradient
       id="linearGradient3685"
       inkscape:collect="always">
      <stop
         id="stop3687"
         offset="0"
         style="stop-color:#ffffff;stop-opacity:1;" />
      <stop
         id="stop3689"
         offset="1"
         style="stop-color:#ffffff;stop-opacity:0;" />
    </linearGradient>
    <linearGradient
       id="linearGradient3697"
       inkscape:collect="always">
      <stop
         id="stop3699"
         offset="0"
         style="stop-color:#ffffff;stop-opacity:1;" />
      <stop
         id="stop3701"
         offset="1"
         style="stop-color:#ffffff;stop-opacity:0;" />
    </linearGradient>
    <inkscape:perspective
       id="perspective4030"
       inkscape:persp3d-origin="12 : 8 : 1"
       inkscape:vp_z="24 : 12 : 1"
       inkscape:vp_y="0 : 1000 : 0"
       inkscape:vp_x="0 : 12 : 1"
       sodipodi:type="inkscape:persp3d" />
    <linearGradient
       inkscape:collect="always"
       xlink:href="#bg"
       id="linearGradient4103"
       x1="35.355339"
       y1="0"
       x2="35.355339"
       y2="70.710678"
       gradientTransform="scale(1.4142136,0.7071068)"
       gradientUnits="userSpaceOnUse" />
    <linearGradient
       inkscape:collect="always"
       xlink:href="#bg"
       id="linearGradient4105"
       x1="25"
       y1="-2.0634963e-30"
       x2="25"
       y2="50"
       gradientUnits="userSpaceOnUse" />
  </defs>
  <sodipodi:namedview
     id="base"
     pagecolor="#ffffff"
     bordercolor="#666666"
     borderopacity="1.0"
     gridtolerance="10000"
     guidetolerance="10"
     objecttolerance="10"
     inkscape:pageopacity="0.0"
     inkscape:pageshadow="2"
     inkscape:zoom="3.4604317"
     inkscape:cx="524.5"
     inkscape:cy="-202.5"
     inkscape:document-units="px"
     inkscape:current-layer="layer1"
     showgrid="false"
     inkscape:window-width="889"
     inkscape:window-height="727"
     inkscape:window-x="138"
     inkscape:window-y="80" />
  <metadata
     id="metadata7">
    <rdf:RDF>
      <cc:Work
         rdf:about="">
        <dc:format>image/svg+xml</dc:format>
        <dc:type
           rdf:resource="http://purl.org/dc/dcmitype/StillImage" />
      </cc:Work>
    </rdf:RDF>
  </metadata>
  <g
     inkscape:label="Layer 1"
     inkscape:groupmode="layer"
     id="layer1">
    <g
       id="g4107">
      <g
         transform="matrix(0.5591137,0,0,0.5591137,220.25685,100.17448)"
         id="g3608">
        <g
           id="g3539"
           transform="translate(-21.23077,-22.378378)"
           style="stroke:#1a1a1a">
          <path
             id="path3237"
             d="M 521.83844,234.4375 L 521.83844,243.03125 L 521.83844,251.625 L 522.86969,251.1875 C 523.43666,250.94494 528.09261,248.91051 533.21344,246.6875 L 542.52594,242.65625 L 542.36969,242.53125 L 542.52594,242.53125 L 542.52594,234.5625 L 534.52594,234.5625 L 534.52594,237.28125 C 531.26175,235.80776 527.66346,234.8825 523.83844,234.59375 L 521.83844,234.4375 z"
             style="fill:#000000;fill-opacity:1;stroke:#1a1a1a;stroke-width:1;stroke-miterlimit:4;stroke-dasharray:none;stroke-opacity:1" />
          <g
             id="g3522"
             style="stroke:#1a1a1a">
            <path
               style="fill:#000000;fill-opacity:1;stroke:#1a1a1a;stroke-width:1;stroke-miterlimit:4;stroke-dasharray:none;stroke-opacity:1"
               d="M 521.84375,226.40625 L 521.84375,235 L 521.84375,243.59375 L 522.875,243.15625 C 523.44197,242.91369 528.0979,240.87926 533.21875,238.65625 L 542.53125,234.625 L 541.46875,233.6875 C 536.82988,229.56934 530.63042,227.0772 523.8125,226.5625 L 521.84375,226.40625 z"
               id="path3518" />
            <path
               style="fill:url(#linearGradient3637);fill-opacity:1;stroke:#1a1a1a;stroke-width:1;stroke-miterlimit:4;stroke-dasharray:none;stroke-opacity:1"
               d="M 521.84375,226.40625 L 521.84375,235 L 521.84375,243.59375 L 522.875,243.15625 C 523.44197,242.91369 528.0979,240.87926 533.21875,238.65625 L 542.53125,234.625 L 541.46875,233.6875 C 536.82988,229.56934 530.63042,227.0772 523.8125,226.5625 L 521.84375,226.40625 z"
               id="path3504" />
          </g>
        </g>
        <g
           id="g3545"
           transform="translate(-21.804574,-22.378378)"
           style="stroke:#1a1a1a">
          <path
             id="path3387"
             d="M 520.3519,234.32933 L 520.3519,242.92308 L 520.3519,251.51683 L 519.32065,251.07933 C 518.75368,250.83677 514.09773,248.80234 508.9769,246.57933 L 499.6644,242.54808 L 499.82065,242.42308 L 499.6644,242.42308 L 499.6644,234.45433 L 507.6644,234.45433 L 507.6644,237.17308 C 510.92859,235.69959 514.52688,234.77433 518.3519,234.48558 L 520.3519,234.32933 z"
             style="fill:#000000;fill-opacity:1;stroke:#1a1a1a;stroke-width:1;stroke-miterlimit:4;stroke-dasharray:none;stroke-opacity:1" />
          <g
             id="g3526"
             style="stroke:#1a1a1a">
            <path
               style="fill:#000000;fill-opacity:1;stroke:#1a1a1a;stroke-width:1;stroke-miterlimit:4;stroke-dasharray:none;stroke-opacity:1"
               d="M 520.34375,226.28125 L 518.375,226.4375 C 511.55705,226.9522 505.35762,229.44434 500.71875,233.5625 L 499.65625,234.53125 L 508.96875,238.5625 C 514.0896,240.78553 518.74553,242.78869 519.3125,243.03125 L 520.34375,243.5 L 520.34375,234.875 L 520.34375,226.28125 z"
               id="path3520" />
            <path
               style="fill:url(#linearGradient3639);fill-opacity:1;stroke:#1a1a1a;stroke-width:1;stroke-miterlimit:4;stroke-dasharray:none;stroke-opacity:1"
               d="M 520.34375,226.28125 L 518.375,226.4375 C 511.55705,226.9522 505.35762,229.44434 500.71875,233.5625 L 499.65625,234.53125 L 508.96875,238.5625 C 514.0896,240.78553 518.74553,242.78869 519.3125,243.03125 L 520.34375,243.5 L 520.34375,234.875 L 520.34375,226.28125 z"
               id="path3506" />
          </g>
        </g>
        <g
           id="g3551"
           transform="translate(-22.378378,-22.378378)"
           style="stroke:#1a1a1a">
          <path
             id="path3393"
             d="M 501.2692,244.88855 C 502.60453,244.91142 504.04628,244.99424 505.48795,245.07605 L 506.5817,245.07605 L 506.5817,245.13855 C 511.30482,245.4307 516.08574,245.86266 518.7067,245.63855 C 518.58955,247.30398 518.57506,253.54439 518.6442,253.6073 C 518.71335,253.67021 514.39184,255.8103 508.98795,258.32605 C 503.58405,260.8418 499.07607,262.88088 498.9567,262.8573 C 498.83734,262.83373 498.23518,262.06014 497.61295,261.13855 C 496.05331,258.82848 495.25135,256.27623 495.23795,253.70105 C 495.2379,253.69064 495.23798,253.68022 495.23795,253.6698 L 495.23795,245.07605 L 498.30045,245.07605 C 498.50227,244.87493 498.65198,244.84274 498.80045,244.9198 C 499.57379,244.89461 500.408,244.8738 501.2692,244.88855 z"
             style="fill:#000000;fill-opacity:1;stroke:#1a1a1a;stroke-width:1;stroke-miterlimit:4;stroke-dasharray:none;stroke-opacity:1" />
          <path
             id="path3516"
             d="M 498.59375,236.84375 C 498.36869,236.90077 498.09508,237.24506 497.5625,238.0625 C 494.45672,242.82944 494.46185,248.48617 497.59375,253.125 C 498.21594,254.04658 498.81814,254.82018 498.9375,254.84375 C 499.05686,254.86732 503.5961,252.82825 509,250.3125 C 514.40389,247.79674 518.74844,245.64638 518.65625,245.5625 C 518.56404,245.47862 514.1242,243.54714 508.8125,241.25 C 503.50079,238.95283 499.00896,236.97697 498.8125,236.875 C 498.74146,236.83813 498.66877,236.82474 498.59375,236.84375 z"
             style="fill:#000000;fill-opacity:1;stroke:#1a1a1a;stroke-width:1;stroke-miterlimit:4;stroke-dasharray:none;stroke-opacity:1" />
          <path
             id="path3502"
             d="M 498.59375,236.84375 C 498.36869,236.90077 498.09508,237.24506 497.5625,238.0625 C 494.45672,242.82944 494.46185,248.48617 497.59375,253.125 C 498.21594,254.04658 498.81814,254.82018 498.9375,254.84375 C 499.05686,254.86732 503.5961,252.82825 509,250.3125 C 514.40389,247.79674 518.74844,245.64638 518.65625,245.5625 C 518.56404,245.47862 514.1242,243.54714 508.8125,241.25 C 503.50079,238.95283 499.00896,236.97697 498.8125,236.875 C 498.74146,236.83813 498.66877,236.82474 498.59375,236.84375 z"
             style="fill:url(#linearGradient3641);fill-opacity:1;stroke:#1a1a1a;stroke-width:1;stroke-miterlimit:4;stroke-dasharray:none;stroke-opacity:1" />
        </g>
        <g
           id="g3566"
           transform="translate(-20.656966,-22.378378)"
           style="stroke:#1a1a1a;stroke-opacity:1">
          <path
             id="path3239"
             d="M 540.92106,244.99672 C 539.58573,245.01959 538.14398,245.10241 536.70231,245.18422 L 535.60856,245.18422 L 535.60856,245.24672 C 530.88544,245.53887 526.10452,245.97083 523.48356,245.74672 C 523.60071,247.41215 523.6152,253.65256 523.54606,253.71547 C 523.47691,253.77838 527.79842,255.91847 533.20231,258.43422 C 538.60621,260.94997 543.11419,262.98905 543.23356,262.96547 C 543.35292,262.9419 543.95508,262.16831 544.57731,261.24672 C 546.13695,258.93665 546.93891,256.3844 546.95231,253.80922 C 546.95236,253.79881 546.95228,253.78839 546.95231,253.77797 L 546.95231,245.18422 L 543.88981,245.18422 C 543.68799,244.9831 543.53828,244.95091 543.38981,245.02797 C 542.61647,245.00278 541.78226,244.98197 540.92106,244.99672 z"
             style="fill:#000000;fill-opacity:1;stroke:#1a1a1a;stroke-width:1;stroke-miterlimit:4;stroke-dasharray:none;stroke-opacity:1" />
          <g
             id="g3530"
             style="stroke:#1a1a1a;stroke-opacity:1">
            <path
               style="fill:#000000;fill-opacity:1;stroke:#1a1a1a;stroke-width:1;stroke-miterlimit:4;stroke-dasharray:none;stroke-opacity:1"
               d="M 543.59375,236.96875 C 543.51873,236.94974 543.44604,236.96313 543.375,237 C 543.17854,237.10197 538.68672,239.04658 533.375,241.34375 C 528.0633,243.64089 523.62347,245.60362 523.53125,245.6875 C 523.43906,245.77138 527.7836,247.89049 533.1875,250.40625 C 538.5914,252.922 543.13062,254.96107 543.25,254.9375 C 543.36936,254.91393 543.97157,254.14033 544.59375,253.21875 C 547.72565,248.57992 547.73076,242.95444 544.625,238.1875 C 544.09242,237.37006 543.81881,237.02577 543.59375,236.96875 z"
               id="path3514" />
            <path
               style="fill:url(#linearGradient3643);fill-opacity:1;stroke:#1a1a1a;stroke-width:1;stroke-miterlimit:4;stroke-dasharray:none;stroke-opacity:1"
               d="M 543.59375,236.96875 C 543.51873,236.94974 543.44604,236.96313 543.375,237 C 543.17854,237.10197 538.68672,239.04658 533.375,241.34375 C 528.0633,243.64089 523.62347,245.60362 523.53125,245.6875 C 523.43906,245.77138 527.7836,247.89049 533.1875,250.40625 C 538.5914,252.922 543.13062,254.96107 543.25,254.9375 C 543.36936,254.91393 543.97157,254.14033 544.59375,253.21875 C 547.72565,248.57992 547.73076,242.95444 544.625,238.1875 C 544.09242,237.37006 543.81881,237.02577 543.59375,236.96875 z"
               id="path3500" />
          </g>
        </g>
        <g
           id="g3556"
           transform="translate(-21.804574,-22.378378)"
           style="stroke:#1a1a1a">
          <path
             sodipodi:nodetypes="ccccccccc"
             id="path3399"
             d="M 520.35188,264.31034 L 520.35188,255.83011 L 518.99547,256.45026 C 518.24944,256.79134 505.12262,254.86613 500.37366,257.06903 L 500.37012,265.08089 L 501.51721,266.11243 C 505.37779,269.58411 511.9838,272.13058 518.4529,272.64078 L 520.35188,272.79055 L 520.35188,264.31034 z"
             style="fill:#000000;fill-opacity:1;stroke:#1a1a1a;stroke-width:1;stroke-miterlimit:4;stroke-dasharray:none;stroke-opacity:1" />
          <path
             id="path3512"
             d="M 520.34375,247.8125 L 519,248.40625 C 518.25395,248.74732 513.74896,250.82837 509,253.03125 L 500.375,257.0625 L 501.53125,258.09375 C 505.39182,261.56543 511.9684,264.1148 518.4375,264.625 L 520.34375,264.75 L 520.34375,256.28125 L 520.34375,247.8125 z"
             style="fill:#000000;fill-opacity:1;stroke:#1a1a1a;stroke-width:1;stroke-miterlimit:4;stroke-dasharray:none;stroke-opacity:1" />
          <path
             id="path3498"
             d="M 520.34375,247.8125 L 519,248.40625 C 518.25395,248.74732 513.74896,250.82837 509,253.03125 L 500.375,257.0625 L 501.53125,258.09375 C 505.39182,261.56543 511.9684,264.1148 518.4375,264.625 L 520.34375,264.75 L 520.34375,256.28125 L 520.34375,247.8125 z"
             style="fill:url(#linearGradient3645);fill-opacity:1;stroke:#1a1a1a;stroke-width:1;stroke-miterlimit:4;stroke-dasharray:none;stroke-opacity:1" />
        </g>
        <g
           id="g3561"
           transform="translate(-21.23077,-22.378378)"
           style="stroke:#1a1a1a">
          <path
             sodipodi:nodetypes="ccccccccc"
             id="path3241"
             d="M 521.83844,264.4185 L 521.83844,255.93827 L 523.19485,256.55842 C 523.94088,256.8995 537.0677,254.9743 541.81666,257.17719 L 541.8202,265.18906 L 540.67311,266.22059 C 536.81253,269.69227 530.20652,272.23875 523.73742,272.74895 L 521.83844,272.89872 L 521.83844,264.4185 z"
             style="fill:#000000;fill-opacity:1;stroke:#1a1a1a;stroke-width:1;stroke-miterlimit:4;stroke-dasharray:none;stroke-opacity:1" />
          <path
             id="path3488"
             d="M 521.84375,247.90625 L 521.84375,256.375 L 521.84375,264.875 L 523.75,264.71875 C 530.2191,264.20855 536.82694,261.65919 540.6875,258.1875 L 541.8125,257.15625 L 533.1875,253.15625 C 528.43854,250.95336 523.9335,248.87234 523.1875,248.53125 L 521.84375,247.90625 z"
             style="fill:#000000;fill-opacity:1;stroke:#1a1a1a;stroke-width:1;stroke-miterlimit:4;stroke-dasharray:none;stroke-opacity:1" />
          <path
             id="path3249"
             d="M 521.84375,247.90625 L 521.84375,256.375 L 521.84375,264.875 L 523.75,264.71875 C 530.2191,264.20855 536.82694,261.65919 540.6875,258.1875 L 541.8125,257.15625 L 533.1875,253.15625 C 528.43854,250.95336 523.9335,248.87234 523.1875,248.53125 L 521.84375,247.90625 z"
             style="fill:url(#linearGradient3647);fill-opacity:1;stroke:#1a1a1a;stroke-width:1;stroke-miterlimit:4;stroke-dasharray:none;stroke-opacity:1" />
        </g>
      </g>
      <g
         transform="matrix(0.6244415,0,0,0.42164,491.84924,219.78195)"
         id="g4087">
        <path
           sodipodi:type="arc"
           style="fill:url(#radialGradient4620);fill-opacity:1;stroke:none;stroke-width:1;stroke-miterlimit:4;stroke-dasharray:none"
           id="path2691"
           sodipodi:cx="196.39554"
           sodipodi:cy="446.4101"
           sodipodi:rx="12.159574"
           sodipodi:ry="11.606866"
           d="M 208.55511,446.4101 A 12.159574,11.606866 0 1 1 184.23596,446.4101 A 12.159574,11.606866 0 1 1 208.55511,446.4101 z"
           transform="matrix(0.9868767,0,0,1.0338708,-181.81818,-449.53036)" />
        <path
           style="fill:#ffffff;fill-opacity:0.71951222;fill-rule:evenodd;stroke:#1a0000;stroke-width:1;stroke-linecap:round;stroke-linejoin:miter;stroke-miterlimit:4;stroke-dasharray:none;stroke-dashoffset:0;stroke-opacity:1"
           d="M 8.1090135,4.9196767 L 4.9196764,8.099476 L 8.8319315,12.000007 L 4.9196764,15.900537 L 8.1090135,19.080323 L 12.021268,15.179793 L 15.890988,19.080323 L 19.080324,15.900537 L 15.168083,12.000007 L 19.080324,8.099476 L 15.890988,4.9196767 L 12.021268,8.8202206 L 8.1090135,4.9196767 z"
           id="path3524" />
        <symbol
           preserveAspectRatio="none"
           viewBox="-5 -5 110 60"
           id="btn">
<!--background gradient-->          <use
             height="1052.3622"
             width="744.09448"
             y="0"
             x="0"
             style="fill:url(#linearGradient4103)"
             id="use2396"
             xlink:href="#bt" />
<!--highlights-->          <use
             height="1052.3622"
             width="744.09448"
             y="0"
             x="0"
             style="fill:url(#hlt)"
             id="use2398"
             xlink:href="#bt"
             transform="matrix(0.8,0,0,0.45,9.6,1.8)" />
          <use
             height="1052.3622"
             width="744.09448"
             y="0"
             x="0"
             style="fill:url(#hlb);filter:url(#gblur2)"
             id="use2400"
             xlink:href="#bt"
             transform="matrix(0.8,0,0,0.45,9.6,25.65)" />
        </symbol>
        <symbol
           preserveAspectRatio="none"
           viewBox="-5 -5 60 60"
           id="blt">
<!--background gradient-->          <use
             height="1052.3622"
             width="744.09448"
             y="0"
             x="0"
             style="fill:url(#linearGradient4105)"
             id="use2403"
             xlink:href="#bl" />
<!--highlights-->          <use
             height="1052.3622"
             width="744.09448"
             y="0"
             x="0"
             style="fill:url(#hltbl)"
             id="use2405"
             xlink:href="#bl"
             transform="matrix(0.6,0,0,0.35,9.6,1.4)" />
          <use
             height="1052.3622"
             width="744.09448"
             y="0"
             x="0"
             style="fill:url(#hlbbl);filter:url(#gblur2)"
             id="use2407"
             xlink:href="#bl"
             transform="matrix(0.6,0,0,0.45,9.6,25.65)" />
        </symbol>
        <symbol
           preserveAspectRatio="xMidYMid meet"
           viewBox="0 0 104 112"
           id="kjklogo">
          <path
             style="stroke-linejoin:miter;stroke-miterlimit:10"
             id="path2410"
             stroke-miterlimit="10"
             d="M 52,1 L 30,1 C 17.390981,1.1196856 6.2026277,9.1113663 2,21 C 7.9739872,13.44198 17.759255,9.9891036 27.153595,12.124181 C 36.547935,14.259258 43.879576,21.602342 46,31 L 16,31 C 13.238576,31 11,33.238576 11,36 C 11,38.761424 13.238576,41 16,41 L 46,41 C 43.879576,50.397658 36.547935,57.740742 27.153595,59.875819 C 17.759255,62.010896 7.9739872,58.55802 2,51 L 52,111 L 102,51 C 96.026013,58.55802 86.240745,62.010896 76.846405,59.875819 C 67.452065,57.740742 60.120424,50.397658 58,41 L 88,41 C 90.761424,41 93,38.761424 93,36 C 93,33.238576 90.761424,31 88,31 L 58,31 C 60.120424,21.602342 67.452065,14.259258 76.846405,12.124181 C 86.240745,9.9891036 96.026013,13.44198 102,21 C 97.797372,9.1113663 86.609019,1.1196856 74,1 L 52,1 z M 52,8 L 65,8 C 59.326999,10.746639 54.746639,15.326999 52,21 C 49.253361,15.326999 44.673001,10.746639 39,8 L 52,8 z M 52,51 C 56.210236,60.856406 65.358984,67.717968 76,69 L 52,97 L 28,69 C 38.641016,67.717968 47.789764,60.856406 52,51 z M 52,64 C 55.302585,67.831962 59.396593,70.902468 64,73 L 52,87 L 40,73 C 44.603407,70.902468 48.697415,67.831962 52,64 z" />
        </symbol>
        <path
           sodipodi:type="arc"
           style="fill:url(#linearGradient4617);fill-opacity:1;stroke:none;stroke-width:1;stroke-miterlimit:4;stroke-dasharray:none"
           id="path3695"
           sodipodi:cx="208.00241"
           sodipodi:cy="482.70459"
           sodipodi:rx="22.292551"
           sodipodi:ry="8.4748545"
           d="M 230.29496,482.70459 A 22.292551,8.4748545 0 1 1 185.70986,482.70459 A 22.292551,8.4748545 0 1 1 230.29496,482.70459 z"
           transform="matrix(0.3057851,0,0,0.5217391,-51.604038,-246.11664)" />
        <path
           sodipodi:type="arc"
           style="fill:url(#linearGradient2226);fill-opacity:1;stroke:none;stroke-width:1;stroke-miterlimit:4;stroke-dasharray:none"
           id="path3670"
           sodipodi:cx="180.55124"
           sodipodi:cy="484.17847"
           sodipodi:rx="8.1063824"
           sodipodi:ry="6.6324949"
           d="M 188.65762,484.17847 A 8.1063824,6.6324949 0 1 1 172.44486,484.17847 A 8.1063824,6.6324949 0 1 1 188.65762,484.17847 z"
           transform="translate(-168.55124,-467.76365)" />
      </g>
    </g>
  </g>
</svg>
